<?xml version="1.0" encoding="UTF-8" standalone="no"?>
<svg
   xmlns:dc="http://purl.org/dc/elements/1.1/"
   xmlns:cc="http://creativecommons.org/ns#"
   xmlns:rdf="http://www.w3.org/1999/02/22-rdf-syntax-ns#"
   xmlns:svg="http://www.w3.org/2000/svg"
   xmlns="http://www.w3.org/2000/svg"
   id="svg8"
   version="1.1"
   viewBox="0 0 16.000109 16.000109"
   height="16.000109mm"
   width="16.000109mm">
  <defs
     id="defs2">
    <marker
       style="overflow:visible"
       id="marker1095"
       refX="0"
       refY="0"
       orient="auto">
      <path
         transform="matrix(0.8,0,0,0.8,10,0)"
         style="fill-rule:evenodd;stroke:#000000;stroke-width:1.00000003pt"
         d="M 0,0 5,-5 -12.5,0 5,5 Z"
         id="path1093" />
    </marker>
    <marker
       style="overflow:visible"
       id="Arrow1Lstart"
       refX="0"
       refY="0"
       orient="auto">
      <path
         transform="matrix(0.8,0,0,0.8,10,0)"
         style="fill-rule:evenodd;stroke:#000000;stroke-width:1.00000003pt"
         d="M 0,0 5,-5 -12.5,0 5,5 Z"
         id="path823" />
    </marker>
  </defs>
  <metadata
     id="metadata5">
    <rdf:RDF>
      <cc:Work
         rdf:about="">
        <dc:format>image/svg+xml</dc:format>
        <dc:type
           rdf:resource="http://purl.org/dc/dcmitype/StillImage" />
        <dc:title></dc:title>
      </cc:Work>
    </rdf:RDF>
  </metadata>
  <g
     transform="translate(-101.9537,-88.17366)"
     id="layer1">
    <g
       id="g834">
      <path
         style="opacity:1;fill:#000080;fill-opacity:0.94117647;stroke:#ffffff;stroke-width:5.95527315;stroke-miterlimit:4;stroke-dasharray:none;stroke-opacity:1"
         d="m 427.88477,339.2793 c -3.70951,-1.88407 -7.84985,-3.04688 -12.31055,-3.04688 -4.31817,0 -8.34156,1.08472 -11.96289,2.85742 l 12.14844,26.45899 z"
         id="path2791"
         transform="scale(0.26458333)" />
      <path
         style="opacity:1;fill:#000080;fill-opacity:0.94117647;stroke:#ffffff;stroke-width:5.95527315;stroke-miterlimit:4;stroke-dasharray:none;stroke-opacity:1"
         d="m 395.84766,344.72461 c -4.64619,4.88426 -7.53321,11.46305 -7.53321,18.76758 0,15.10125 12.15851,27.25781 27.25977,27.25781 15.10125,0 27.25781,-12.15656 27.25781,-27.25781 0,-7.3226 -2.89785,-13.9189 -7.56445,-18.80664 l -14.26953,29.8125 c -0.49874,1.04819 -1.24666,1.89597 -2.24414,2.54101 -0.99749,0.56441 -2.07846,0.84571 -3.24219,0.84571 -1.08061,0 -2.11971,-0.2813 -3.11719,-0.84571 -0.99748,-0.64504 -1.78727,-1.49282 -2.36914,-2.54101 z"
         id="path2789"
         transform="scale(0.26458333)" />
      <path
         style="opacity:1;fill:#000080;fill-opacity:0.94117647;stroke:#ffffff;stroke-width:5.95527315;stroke-miterlimit:4;stroke-dasharray:none;stroke-opacity:1"
         d="m 395.84766,344.72461 14.17773,29.77344 c 0.58187,1.04819 1.37166,1.89597 2.36914,2.54101 0.99748,0.56441 2.03658,0.84571 3.11719,0.84571 1.16373,0 2.2447,-0.2813 3.24219,-0.84571 0.99748,-0.64504 1.7454,-1.49282 2.24414,-2.54101 l 14.26953,-29.8125 c -2.11449,-2.2147 -4.62361,-4.00485 -7.38281,-5.40625 l -12.125,26.26953 -12.14844,-26.45899 c -2.9172,1.42802 -5.55108,3.3088 -7.76367,5.63477 z"
         id="rect817"
         transform="scale(0.26458333)" />
    </g>
  </g>
</svg>
